<mxfile host="app.diagrams.net" modified="2021-01-24T15:44:32.640Z" agent="5.0 (Windows NT 10.0; Win64; x64) AppleWebKit/537.36 (KHTML, like Gecko) Chrome/87.0.4280.141 Safari/537.36" etag="LYQYgM6o9sDmeIVwYiRf" version="14.2.4" type="github" pages="2">
  <diagram id="C5RBs43oDa-KdzZeNtuy" name="Page-1">
    <mxGraphModel dx="868" dy="393" grid="1" gridSize="10" guides="1" tooltips="1" connect="1" arrows="1" fold="1" page="1" pageScale="1" pageWidth="827" pageHeight="1169" math="0" shadow="0">
      <root>
        <mxCell id="WIyWlLk6GJQsqaUBKTNV-0" />
        <mxCell id="WIyWlLk6GJQsqaUBKTNV-1" parent="WIyWlLk6GJQsqaUBKTNV-0" />
        <mxCell id="dyfLBD4CfKSnast9MrBf-8" style="edgeStyle=orthogonalEdgeStyle;rounded=0;orthogonalLoop=1;jettySize=auto;html=1;exitX=0.5;exitY=1;exitDx=0;exitDy=0;entryX=0.5;entryY=0;entryDx=0;entryDy=0;" edge="1" parent="WIyWlLk6GJQsqaUBKTNV-1" source="dyfLBD4CfKSnast9MrBf-0" target="dyfLBD4CfKSnast9MrBf-2">
          <mxGeometry relative="1" as="geometry" />
        </mxCell>
        <mxCell id="dyfLBD4CfKSnast9MrBf-0" value="Start" style="rounded=1;whiteSpace=wrap;html=1;" vertex="1" parent="WIyWlLk6GJQsqaUBKTNV-1">
          <mxGeometry x="140" y="220" width="60" height="40" as="geometry" />
        </mxCell>
        <mxCell id="dyfLBD4CfKSnast9MrBf-9" style="edgeStyle=orthogonalEdgeStyle;rounded=0;orthogonalLoop=1;jettySize=auto;html=1;exitX=0.5;exitY=1;exitDx=0;exitDy=0;entryX=0.5;entryY=0;entryDx=0;entryDy=0;" edge="1" parent="WIyWlLk6GJQsqaUBKTNV-1" source="dyfLBD4CfKSnast9MrBf-2" target="dyfLBD4CfKSnast9MrBf-3">
          <mxGeometry relative="1" as="geometry" />
        </mxCell>
        <mxCell id="dyfLBD4CfKSnast9MrBf-2" value="Input number of worker and amount&lt;br&gt;of monthly salary" style="shape=parallelogram;perimeter=parallelogramPerimeter;whiteSpace=wrap;html=1;fixedSize=1;" vertex="1" parent="WIyWlLk6GJQsqaUBKTNV-1">
          <mxGeometry x="110" y="280" width="120" height="60" as="geometry" />
        </mxCell>
        <mxCell id="dyfLBD4CfKSnast9MrBf-11" style="edgeStyle=orthogonalEdgeStyle;rounded=0;orthogonalLoop=1;jettySize=auto;html=1;exitX=0.5;exitY=1;exitDx=0;exitDy=0;entryX=0.5;entryY=0;entryDx=0;entryDy=0;" edge="1" parent="WIyWlLk6GJQsqaUBKTNV-1" source="dyfLBD4CfKSnast9MrBf-3" target="dyfLBD4CfKSnast9MrBf-6">
          <mxGeometry relative="1" as="geometry" />
        </mxCell>
        <mxCell id="dyfLBD4CfKSnast9MrBf-12" style="edgeStyle=orthogonalEdgeStyle;rounded=0;orthogonalLoop=1;jettySize=auto;html=1;exitX=1;exitY=0.5;exitDx=0;exitDy=0;entryX=0;entryY=0.5;entryDx=0;entryDy=0;" edge="1" parent="WIyWlLk6GJQsqaUBKTNV-1" source="dyfLBD4CfKSnast9MrBf-3" target="dyfLBD4CfKSnast9MrBf-4">
          <mxGeometry relative="1" as="geometry" />
        </mxCell>
        <mxCell id="dyfLBD4CfKSnast9MrBf-3" value="Calculate the salary of monthly worker" style="rounded=0;whiteSpace=wrap;html=1;" vertex="1" parent="WIyWlLk6GJQsqaUBKTNV-1">
          <mxGeometry x="110" y="360" width="120" height="60" as="geometry" />
        </mxCell>
        <mxCell id="dyfLBD4CfKSnast9MrBf-13" style="edgeStyle=orthogonalEdgeStyle;rounded=0;orthogonalLoop=1;jettySize=auto;html=1;exitX=1;exitY=0.5;exitDx=0;exitDy=0;" edge="1" parent="WIyWlLk6GJQsqaUBKTNV-1" source="dyfLBD4CfKSnast9MrBf-4" target="dyfLBD4CfKSnast9MrBf-5">
          <mxGeometry relative="1" as="geometry" />
        </mxCell>
        <mxCell id="dyfLBD4CfKSnast9MrBf-4" value="If number of worker more than 0" style="rhombus;whiteSpace=wrap;html=1;" vertex="1" parent="WIyWlLk6GJQsqaUBKTNV-1">
          <mxGeometry x="260" y="350" width="120" height="80" as="geometry" />
        </mxCell>
        <mxCell id="dyfLBD4CfKSnast9MrBf-5" value="Display detail of salary of monthly worker" style="shape=parallelogram;perimeter=parallelogramPerimeter;whiteSpace=wrap;html=1;fixedSize=1;" vertex="1" parent="WIyWlLk6GJQsqaUBKTNV-1">
          <mxGeometry x="400" y="360" width="120" height="60" as="geometry" />
        </mxCell>
        <mxCell id="dyfLBD4CfKSnast9MrBf-50" style="edgeStyle=orthogonalEdgeStyle;rounded=0;orthogonalLoop=1;jettySize=auto;html=1;exitX=0.5;exitY=1;exitDx=0;exitDy=0;" edge="1" parent="WIyWlLk6GJQsqaUBKTNV-1" source="dyfLBD4CfKSnast9MrBf-6" target="dyfLBD4CfKSnast9MrBf-42">
          <mxGeometry relative="1" as="geometry" />
        </mxCell>
        <mxCell id="dyfLBD4CfKSnast9MrBf-6" value="Display total salary&lt;br&gt;of monthly worker" style="shape=parallelogram;perimeter=parallelogramPerimeter;whiteSpace=wrap;html=1;fixedSize=1;" vertex="1" parent="WIyWlLk6GJQsqaUBKTNV-1">
          <mxGeometry x="110" y="440" width="120" height="60" as="geometry" />
        </mxCell>
        <mxCell id="dyfLBD4CfKSnast9MrBf-63" style="edgeStyle=orthogonalEdgeStyle;rounded=0;orthogonalLoop=1;jettySize=auto;html=1;exitX=0.5;exitY=1;exitDx=0;exitDy=0;entryX=0.5;entryY=0;entryDx=0;entryDy=0;" edge="1" parent="WIyWlLk6GJQsqaUBKTNV-1" source="dyfLBD4CfKSnast9MrBf-42" target="dyfLBD4CfKSnast9MrBf-45">
          <mxGeometry relative="1" as="geometry" />
        </mxCell>
        <mxCell id="dyfLBD4CfKSnast9MrBf-42" value="Input number of worker, number of hour worked and amount&lt;br&gt;of hour salary" style="shape=parallelogram;perimeter=parallelogramPerimeter;whiteSpace=wrap;html=1;fixedSize=1;" vertex="1" parent="WIyWlLk6GJQsqaUBKTNV-1">
          <mxGeometry x="110" y="520" width="120" height="70" as="geometry" />
        </mxCell>
        <mxCell id="dyfLBD4CfKSnast9MrBf-43" style="edgeStyle=orthogonalEdgeStyle;rounded=0;orthogonalLoop=1;jettySize=auto;html=1;exitX=0.5;exitY=1;exitDx=0;exitDy=0;entryX=0.5;entryY=0;entryDx=0;entryDy=0;" edge="1" parent="WIyWlLk6GJQsqaUBKTNV-1" source="dyfLBD4CfKSnast9MrBf-45" target="dyfLBD4CfKSnast9MrBf-49">
          <mxGeometry relative="1" as="geometry" />
        </mxCell>
        <mxCell id="dyfLBD4CfKSnast9MrBf-44" style="edgeStyle=orthogonalEdgeStyle;rounded=0;orthogonalLoop=1;jettySize=auto;html=1;exitX=1;exitY=0.5;exitDx=0;exitDy=0;entryX=0;entryY=0.5;entryDx=0;entryDy=0;" edge="1" parent="WIyWlLk6GJQsqaUBKTNV-1" source="dyfLBD4CfKSnast9MrBf-45" target="dyfLBD4CfKSnast9MrBf-47">
          <mxGeometry relative="1" as="geometry" />
        </mxCell>
        <mxCell id="dyfLBD4CfKSnast9MrBf-45" value="Calculate the salary of hourly worker" style="rounded=0;whiteSpace=wrap;html=1;" vertex="1" parent="WIyWlLk6GJQsqaUBKTNV-1">
          <mxGeometry x="110" y="610" width="120" height="60" as="geometry" />
        </mxCell>
        <mxCell id="dyfLBD4CfKSnast9MrBf-46" style="edgeStyle=orthogonalEdgeStyle;rounded=0;orthogonalLoop=1;jettySize=auto;html=1;exitX=1;exitY=0.5;exitDx=0;exitDy=0;" edge="1" parent="WIyWlLk6GJQsqaUBKTNV-1" source="dyfLBD4CfKSnast9MrBf-47" target="dyfLBD4CfKSnast9MrBf-48">
          <mxGeometry relative="1" as="geometry" />
        </mxCell>
        <mxCell id="dyfLBD4CfKSnast9MrBf-47" value="If number of worker more than 0" style="rhombus;whiteSpace=wrap;html=1;" vertex="1" parent="WIyWlLk6GJQsqaUBKTNV-1">
          <mxGeometry x="260" y="600" width="120" height="80" as="geometry" />
        </mxCell>
        <mxCell id="dyfLBD4CfKSnast9MrBf-48" value="Display detail of salary of hourly worker" style="shape=parallelogram;perimeter=parallelogramPerimeter;whiteSpace=wrap;html=1;fixedSize=1;" vertex="1" parent="WIyWlLk6GJQsqaUBKTNV-1">
          <mxGeometry x="400" y="610" width="120" height="60" as="geometry" />
        </mxCell>
        <mxCell id="dyfLBD4CfKSnast9MrBf-49" value="Display total salary&lt;br&gt;of hourly worker" style="shape=parallelogram;perimeter=parallelogramPerimeter;whiteSpace=wrap;html=1;fixedSize=1;" vertex="1" parent="WIyWlLk6GJQsqaUBKTNV-1">
          <mxGeometry x="110" y="690" width="120" height="60" as="geometry" />
        </mxCell>
        <mxCell id="dyfLBD4CfKSnast9MrBf-51" style="edgeStyle=orthogonalEdgeStyle;rounded=0;orthogonalLoop=1;jettySize=auto;html=1;exitX=0.5;exitY=1;exitDx=0;exitDy=0;" edge="1" parent="WIyWlLk6GJQsqaUBKTNV-1" target="dyfLBD4CfKSnast9MrBf-53">
          <mxGeometry relative="1" as="geometry">
            <mxPoint x="170" y="750" as="sourcePoint" />
          </mxGeometry>
        </mxCell>
        <mxCell id="dyfLBD4CfKSnast9MrBf-52" style="edgeStyle=orthogonalEdgeStyle;rounded=0;orthogonalLoop=1;jettySize=auto;html=1;exitX=0.5;exitY=1;exitDx=0;exitDy=0;entryX=0.5;entryY=0;entryDx=0;entryDy=0;" edge="1" parent="WIyWlLk6GJQsqaUBKTNV-1" target="dyfLBD4CfKSnast9MrBf-56">
          <mxGeometry relative="1" as="geometry">
            <mxPoint x="170" y="880" as="sourcePoint" />
          </mxGeometry>
        </mxCell>
        <mxCell id="dyfLBD4CfKSnast9MrBf-53" value="Input number of worker, amount&lt;br&gt;of commission&lt;br&gt;&amp;nbsp;salary , percentage of commission and amount of weekly sales" style="shape=parallelogram;perimeter=parallelogramPerimeter;whiteSpace=wrap;html=1;fixedSize=1;" vertex="1" parent="WIyWlLk6GJQsqaUBKTNV-1">
          <mxGeometry x="110" y="770" width="120" height="110" as="geometry" />
        </mxCell>
        <mxCell id="dyfLBD4CfKSnast9MrBf-54" style="edgeStyle=orthogonalEdgeStyle;rounded=0;orthogonalLoop=1;jettySize=auto;html=1;exitX=0.5;exitY=1;exitDx=0;exitDy=0;entryX=0.5;entryY=0;entryDx=0;entryDy=0;" edge="1" parent="WIyWlLk6GJQsqaUBKTNV-1" source="dyfLBD4CfKSnast9MrBf-56" target="dyfLBD4CfKSnast9MrBf-60">
          <mxGeometry relative="1" as="geometry" />
        </mxCell>
        <mxCell id="dyfLBD4CfKSnast9MrBf-55" style="edgeStyle=orthogonalEdgeStyle;rounded=0;orthogonalLoop=1;jettySize=auto;html=1;exitX=1;exitY=0.5;exitDx=0;exitDy=0;entryX=0;entryY=0.5;entryDx=0;entryDy=0;" edge="1" parent="WIyWlLk6GJQsqaUBKTNV-1" source="dyfLBD4CfKSnast9MrBf-56" target="dyfLBD4CfKSnast9MrBf-58">
          <mxGeometry relative="1" as="geometry" />
        </mxCell>
        <mxCell id="dyfLBD4CfKSnast9MrBf-56" value="Calculate the salary of commission worker" style="rounded=0;whiteSpace=wrap;html=1;" vertex="1" parent="WIyWlLk6GJQsqaUBKTNV-1">
          <mxGeometry x="110" y="900" width="120" height="60" as="geometry" />
        </mxCell>
        <mxCell id="dyfLBD4CfKSnast9MrBf-57" style="edgeStyle=orthogonalEdgeStyle;rounded=0;orthogonalLoop=1;jettySize=auto;html=1;exitX=1;exitY=0.5;exitDx=0;exitDy=0;" edge="1" parent="WIyWlLk6GJQsqaUBKTNV-1" source="dyfLBD4CfKSnast9MrBf-58" target="dyfLBD4CfKSnast9MrBf-59">
          <mxGeometry relative="1" as="geometry" />
        </mxCell>
        <mxCell id="dyfLBD4CfKSnast9MrBf-58" value="If number of worker and amount of weekly sales more than 0" style="rhombus;whiteSpace=wrap;html=1;" vertex="1" parent="WIyWlLk6GJQsqaUBKTNV-1">
          <mxGeometry x="260" y="890" width="170" height="80" as="geometry" />
        </mxCell>
        <mxCell id="dyfLBD4CfKSnast9MrBf-59" value="Display detail of salary of commission worker" style="shape=parallelogram;perimeter=parallelogramPerimeter;whiteSpace=wrap;html=1;fixedSize=1;" vertex="1" parent="WIyWlLk6GJQsqaUBKTNV-1">
          <mxGeometry x="450" y="900" width="160" height="60" as="geometry" />
        </mxCell>
        <mxCell id="dyfLBD4CfKSnast9MrBf-62" style="edgeStyle=orthogonalEdgeStyle;rounded=0;orthogonalLoop=1;jettySize=auto;html=1;exitX=0.5;exitY=1;exitDx=0;exitDy=0;" edge="1" parent="WIyWlLk6GJQsqaUBKTNV-1" source="dyfLBD4CfKSnast9MrBf-60" target="dyfLBD4CfKSnast9MrBf-61">
          <mxGeometry relative="1" as="geometry" />
        </mxCell>
        <mxCell id="dyfLBD4CfKSnast9MrBf-60" value="Display total &lt;br&gt;salary of &lt;br&gt;commission worker" style="shape=parallelogram;perimeter=parallelogramPerimeter;whiteSpace=wrap;html=1;fixedSize=1;" vertex="1" parent="WIyWlLk6GJQsqaUBKTNV-1">
          <mxGeometry x="110" y="980" width="120" height="60" as="geometry" />
        </mxCell>
        <mxCell id="dyfLBD4CfKSnast9MrBf-61" value="End" style="rounded=1;whiteSpace=wrap;html=1;" vertex="1" parent="WIyWlLk6GJQsqaUBKTNV-1">
          <mxGeometry x="140" y="1060" width="60" height="40" as="geometry" />
        </mxCell>
      </root>
    </mxGraphModel>
  </diagram>
  <diagram id="TmElQwMeGg3f4atupuVD" name="Page-2">
    <mxGraphModel dx="868" dy="393" grid="1" gridSize="10" guides="1" tooltips="1" connect="1" arrows="1" fold="1" page="1" pageScale="1" pageWidth="850" pageHeight="1100" math="0" shadow="0">
      <root>
        <mxCell id="Tgsh5Y7mpc-f0oYm9Xfc-0" />
        <mxCell id="Tgsh5Y7mpc-f0oYm9Xfc-1" parent="Tgsh5Y7mpc-f0oYm9Xfc-0" />
        <mxCell id="iLF46MBzodqIc-T_CfYy-0" style="edgeStyle=orthogonalEdgeStyle;rounded=0;orthogonalLoop=1;jettySize=auto;html=1;exitX=0.5;exitY=1;exitDx=0;exitDy=0;entryX=0.5;entryY=0;entryDx=0;entryDy=0;" edge="1" parent="Tgsh5Y7mpc-f0oYm9Xfc-1" source="iLF46MBzodqIc-T_CfYy-1" target="iLF46MBzodqIc-T_CfYy-3">
          <mxGeometry relative="1" as="geometry" />
        </mxCell>
        <mxCell id="iLF46MBzodqIc-T_CfYy-1" value="Start" style="rounded=1;whiteSpace=wrap;html=1;" vertex="1" parent="Tgsh5Y7mpc-f0oYm9Xfc-1">
          <mxGeometry x="140" y="150" width="60" height="40" as="geometry" />
        </mxCell>
        <mxCell id="iLF46MBzodqIc-T_CfYy-2" style="edgeStyle=orthogonalEdgeStyle;rounded=0;orthogonalLoop=1;jettySize=auto;html=1;exitX=0.5;exitY=1;exitDx=0;exitDy=0;entryX=0.5;entryY=0;entryDx=0;entryDy=0;" edge="1" parent="Tgsh5Y7mpc-f0oYm9Xfc-1" source="iLF46MBzodqIc-T_CfYy-3" target="iLF46MBzodqIc-T_CfYy-6">
          <mxGeometry relative="1" as="geometry" />
        </mxCell>
        <mxCell id="iLF46MBzodqIc-T_CfYy-3" value="Input amount of car price, down payment, loan period and interest rate" style="shape=parallelogram;perimeter=parallelogramPerimeter;whiteSpace=wrap;html=1;fixedSize=1;" vertex="1" parent="Tgsh5Y7mpc-f0oYm9Xfc-1">
          <mxGeometry x="110" y="240" width="120" height="60" as="geometry" />
        </mxCell>
        <mxCell id="iLF46MBzodqIc-T_CfYy-4" style="edgeStyle=orthogonalEdgeStyle;rounded=0;orthogonalLoop=1;jettySize=auto;html=1;exitX=0.5;exitY=1;exitDx=0;exitDy=0;entryX=0.5;entryY=0;entryDx=0;entryDy=0;" edge="1" parent="Tgsh5Y7mpc-f0oYm9Xfc-1" source="iLF46MBzodqIc-T_CfYy-6" target="iLF46MBzodqIc-T_CfYy-11">
          <mxGeometry relative="1" as="geometry" />
        </mxCell>
        <mxCell id="iLF46MBzodqIc-T_CfYy-5" style="edgeStyle=orthogonalEdgeStyle;rounded=0;orthogonalLoop=1;jettySize=auto;html=1;exitX=1;exitY=0.5;exitDx=0;exitDy=0;entryX=0;entryY=0.5;entryDx=0;entryDy=0;" edge="1" parent="Tgsh5Y7mpc-f0oYm9Xfc-1" source="iLF46MBzodqIc-T_CfYy-6" target="iLF46MBzodqIc-T_CfYy-8">
          <mxGeometry relative="1" as="geometry" />
        </mxCell>
        <mxCell id="iLF46MBzodqIc-T_CfYy-6" value="Calculate the monthly repayment" style="rounded=0;whiteSpace=wrap;html=1;" vertex="1" parent="Tgsh5Y7mpc-f0oYm9Xfc-1">
          <mxGeometry x="110" y="350" width="120" height="60" as="geometry" />
        </mxCell>
        <mxCell id="iLF46MBzodqIc-T_CfYy-7" style="edgeStyle=orthogonalEdgeStyle;rounded=0;orthogonalLoop=1;jettySize=auto;html=1;exitX=1;exitY=0.5;exitDx=0;exitDy=0;" edge="1" parent="Tgsh5Y7mpc-f0oYm9Xfc-1" source="iLF46MBzodqIc-T_CfYy-8" target="iLF46MBzodqIc-T_CfYy-9">
          <mxGeometry relative="1" as="geometry" />
        </mxCell>
        <mxCell id="iLF46MBzodqIc-T_CfYy-8" value="" style="rhombus;whiteSpace=wrap;html=1;" vertex="1" parent="Tgsh5Y7mpc-f0oYm9Xfc-1">
          <mxGeometry x="280" y="300" width="250" height="160" as="geometry" />
        </mxCell>
        <mxCell id="iLF46MBzodqIc-T_CfYy-9" value="Display detail of the monthly repayment" style="shape=parallelogram;perimeter=parallelogramPerimeter;whiteSpace=wrap;html=1;fixedSize=1;" vertex="1" parent="Tgsh5Y7mpc-f0oYm9Xfc-1">
          <mxGeometry x="570" y="350" width="140" height="60" as="geometry" />
        </mxCell>
        <mxCell id="iLF46MBzodqIc-T_CfYy-11" value="Display total of monthly repayment and the balance of each year" style="shape=parallelogram;perimeter=parallelogramPerimeter;whiteSpace=wrap;html=1;fixedSize=1;" vertex="1" parent="Tgsh5Y7mpc-f0oYm9Xfc-1">
          <mxGeometry x="110" y="460" width="120" height="60" as="geometry" />
        </mxCell>
        <mxCell id="iLF46MBzodqIc-T_CfYy-12" value="If amount of car price more than 30000, amount of down payment more than 0, amount of loan period between 5 and 9, amount of interest rate between 3 and 7" style="text;html=1;strokeColor=none;fillColor=none;align=center;verticalAlign=middle;whiteSpace=wrap;rounded=0;" vertex="1" parent="Tgsh5Y7mpc-f0oYm9Xfc-1">
          <mxGeometry x="332.5" y="335" width="145" height="100" as="geometry" />
        </mxCell>
      </root>
    </mxGraphModel>
  </diagram>
</mxfile>
